<?xml version="1.0" standalone="no"?>
<!DOCTYPE svg PUBLIC "-//W3C//DTD SVG 20010904//EN"
 "http://www.w3.org/TR/2001/REC-SVG-20010904/DTD/svg10.dtd">
<svg version="1.0" xmlns="http://www.w3.org/2000/svg"
 width="118.000000pt" height="118.000000pt" viewBox="0 0 118.000000 118.000000"
 preserveAspectRatio="xMidYMid meet">
<metadata>
Created by potrace 1.11, written by Peter Selinger 2001-2013
</metadata>
<g transform="translate(0.000000,118.000000) scale(0.100000,-0.100000)"
fill="#000000" stroke="none">
<path d="M483 1145 c-52 -44 -93 -125 -92 -179 1 -45 15 -110 19 -86 5 39 11
62 25 92 8 18 13 24 10 13 -2 -11 -7 -39 -10 -63 -6 -40 -5 -42 12 -34 46 25
88 94 99 160 7 45 -3 132 -15 132 -4 0 -26 -16 -48 -35z"/>
<path d="M204 915 c-8 -21 -7 -22 46 -28 52 -6 86 -14 99 -22 5 -3 13 0 17 6
4 8 3 9 -4 5 -7 -4 -12 -2 -12 4 0 6 -4 8 -10 5 -5 -3 -10 -1 -10 5 0 6 -4 8
-10 5 -5 -3 -10 -1 -10 6 0 7 -3 9 -7 6 -3 -4 -11 -3 -17 2 -6 5 -26 12 -44
16 -25 5 -33 3 -38 -10z"/>
<path d="M575 889 c-76 -13 -100 -20 -161 -50 -69 -33 -152 -102 -185 -155
-24 -40 -22 -49 12 -35 13 6 85 29 159 51 74 23 161 51 194 62 32 11 63 21 70
22 6 1 16 4 21 7 6 4 49 17 97 30 72 19 84 25 70 35 -43 29 -193 47 -277 33z"/>
<path d="M823 767 c-21 -9 -30 -38 -24 -71 2 -9 -19 5 -46 31 -13 11 -53 7
-53 -7 0 -4 19 -25 43 -46 24 -21 49 -53 56 -70 9 -24 17 -30 32 -27 22 6 22
7 10 49 -5 19 -5 52 1 83 11 64 9 71 -19 58z"/>
<path d="M610 692 c-43 -21 -63 -71 -47 -115 13 -38 63 -68 102 -61 33 6 75
40 75 61 0 18 -38 16 -57 -3 -22 -22 -55 -14 -72 18 -14 24 -14 28 4 48 13 14
26 19 41 16 13 -4 27 1 38 13 16 18 15 19 -15 30 -18 6 -32 11 -33 11 -1 0
-17 -8 -36 -18z"/>
<path d="M488 652 c-10 -2 -18 -8 -18 -14 0 -8 50 -158 55 -166 1 -1 11 1 23
5 21 8 21 8 -7 91 -16 45 -30 84 -32 86 -2 1 -12 1 -21 -2z"/>
<path d="M411 621 c-12 -8 -11 -18 7 -67 15 -41 18 -62 11 -70 -18 -22 -38 -3
-60 57 -23 62 -25 64 -49 49 -13 -8 -13 -16 3 -62 29 -81 43 -98 80 -98 34 0
70 24 80 51 6 18 -35 142 -49 146 -5 1 -15 -1 -23 -6z"/>
<path d="M257 568 c-16 -12 -15 -17 2 -73 10 -33 17 -63 14 -67 -2 -5 -15 -8
-28 -8 -28 0 -41 -27 -17 -38 19 -9 28 -9 60 2 37 12 44 47 22 110 -28 82 -33
89 -53 74z"/>
<path d="M902 541 c-23 -8 -40 -20 -38 -26 3 -5 15 -43 28 -82 26 -81 30 -83
95 -53 50 22 68 54 59 104 -12 62 -69 85 -144 57z m86 -43 c27 -27 2 -88 -31
-75 -19 7 -38 75 -23 81 21 8 42 6 54 -6z"/>
<path d="M763 492 c-13 -2 -23 -5 -23 -6 0 -2 13 -41 29 -87 32 -91 32 -91 99
-64 33 15 37 21 24 43 -7 9 -15 10 -35 3 -25 -10 -27 -8 -45 42 -11 29 -21 57
-23 62 -2 6 -14 9 -26 7z"/>
<path d="M623 444 c-18 -8 -33 -17 -32 -22 1 -21 56 -156 65 -159 5 -1 15 1
23 6 12 8 13 14 3 35 -14 32 5 36 32 7 11 -12 25 -16 41 -13 31 5 31 9 1 33
-20 16 -23 25 -19 58 4 32 2 41 -18 55 -28 19 -53 19 -96 0z m61 -67 c-8 -4
-19 -5 -24 -2 -16 10 -11 33 8 37 21 5 34 -24 16 -35z"/>
<path d="M454 382 c-53 -42 -54 -103 -3 -147 49 -41 126 -19 150 42 11 29 -5
80 -32 104 -28 24 -87 25 -115 1z m86 -42 c24 -24 25 -43 4 -65 -25 -25 -67
-15 -79 19 -8 24 -6 31 14 47 29 24 36 24 61 -1z"/>
<path d="M359 350 c-12 -7 -15 -22 -12 -62 3 -53 3 -53 -14 -29 -41 56 -50 64
-67 58 -14 -5 -16 -17 -13 -62 2 -30 3 -55 1 -55 -1 0 -15 20 -31 45 -22 35
-32 43 -48 39 -11 -4 -22 -8 -23 -10 -2 -1 20 -37 49 -79 34 -48 58 -74 67
-70 7 3 18 5 24 5 5 0 9 17 8 38 -3 65 -1 68 26 29 18 -28 31 -37 47 -35 20 3
22 8 21 68 -3 143 -2 139 -35 120z"/>
<path d="M900 252 c0 -7 -3 -11 -7 -11 -5 1 -10 1 -13 -1 -3 -1 -15 -3 -27 -6
-12 -2 -41 -11 -65 -19 -38 -14 -53 -19 -93 -29 -5 -1 -95 -30 -200 -63 -104
-34 -202 -65 -217 -68 -16 -4 -28 -10 -28 -14 0 -4 28 -14 63 -24 73 -19 263
-18 312 3 90 38 141 67 184 106 53 47 107 121 97 131 -3 3 -6 1 -6 -5z"/>
</g>
</svg>
