<?xml version="1.0" encoding="UTF-8"?>
<svg xmlns="http://www.w3.org/2000/svg" xmlns:xlink="http://www.w3.org/1999/xlink" width="18pt" height="18pt" viewBox="0 0 18 18" version="1.1">
<g id="surface1">
<path style=" stroke:none;fill-rule:nonzero;fill:#3a3f4c;fill-opacity:1;" d="M 5.800781 11.636719 L 15.363281 11.636719 C 15.597656 11.636719 15.804688 11.480469 15.871094 11.253906 L 17.980469 3.871094 C 18.023438 3.710938 17.992188 3.542969 17.894531 3.410156 C 17.792969 3.277344 17.636719 3.199219 17.472656 3.199219 L 4.582031 3.199219 L 4.207031 1.503906 C 4.152344 1.261719 3.9375 1.089844 3.691406 1.089844 L 0.527344 1.089844 C 0.234375 1.089844 0 1.324219 0 1.617188 C 0 1.910156 0.234375 2.144531 0.527344 2.144531 L 3.269531 2.144531 C 3.335938 2.445312 5.074219 10.261719 5.171875 10.710938 C 4.613281 10.957031 4.21875 11.515625 4.21875 12.164062 C 4.21875 13.035156 4.929688 13.746094 5.800781 13.746094 L 15.363281 13.746094 C 15.65625 13.746094 15.890625 13.511719 15.890625 13.21875 C 15.890625 12.925781 15.65625 12.691406 15.363281 12.691406 L 5.800781 12.691406 C 5.511719 12.691406 5.273438 12.453125 5.273438 12.164062 C 5.273438 11.875 5.507812 11.636719 5.800781 11.636719 Z M 16.773438 4.253906 L 14.964844 10.582031 L 6.222656 10.582031 L 4.816406 4.253906 Z M 16.773438 4.253906 "/>
<path style=" stroke:none;fill-rule:nonzero;fill:#3a3f4c;fill-opacity:1;" d="M 5.273438 15.328125 C 5.273438 16.199219 5.984375 16.910156 6.855469 16.910156 C 7.726562 16.910156 8.4375 16.199219 8.4375 15.328125 C 8.4375 14.457031 7.726562 13.746094 6.855469 13.746094 C 5.984375 13.746094 5.273438 14.457031 5.273438 15.328125 Z M 6.855469 14.800781 C 7.144531 14.800781 7.382812 15.039062 7.382812 15.328125 C 7.382812 15.617188 7.144531 15.855469 6.855469 15.855469 C 6.566406 15.855469 6.328125 15.617188 6.328125 15.328125 C 6.328125 15.039062 6.566406 14.800781 6.855469 14.800781 Z M 6.855469 14.800781 "/>
<path style=" stroke:none;fill-rule:nonzero;fill:#3a3f4c;fill-opacity:1;" d="M 12.726562 15.328125 C 12.726562 16.199219 13.4375 16.910156 14.308594 16.910156 C 15.179688 16.910156 15.890625 16.199219 15.890625 15.328125 C 15.890625 14.457031 15.179688 13.746094 14.308594 13.746094 C 13.4375 13.746094 12.726562 14.457031 12.726562 15.328125 Z M 14.308594 14.800781 C 14.597656 14.800781 14.835938 15.039062 14.835938 15.328125 C 14.835938 15.617188 14.597656 15.855469 14.308594 15.855469 C 14.019531 15.855469 13.78125 15.617188 13.78125 15.328125 C 13.78125 15.039062 14.019531 14.800781 14.308594 14.800781 Z M 14.308594 14.800781 "/>
</g>
</svg>
