<?xml version="1.0" encoding="UTF-8"?>
<svg xmlns="http://www.w3.org/2000/svg" xmlns:xlink="http://www.w3.org/1999/xlink" width="18pt" height="18pt" viewBox="0 0 18 18" version="1.1">
<g id="surface1">
<path style=" stroke:none;fill-rule:nonzero;fill:#3a3f4c;fill-opacity:1;" d="M 15.390625 2.359375 C 13.871094 0.835938 11.847656 0 9.699219 0 C 9.34375 0 9.058594 0.285156 9.058594 0.636719 C 9.058594 0.992188 9.347656 1.277344 9.699219 1.277344 C 11.507812 1.277344 13.210938 1.980469 14.488281 3.261719 C 15.769531 4.539062 16.472656 6.242188 16.472656 8.050781 C 16.472656 8.402344 16.757812 8.6875 17.109375 8.6875 C 17.464844 8.6875 17.75 8.402344 17.75 8.050781 C 17.75 5.902344 16.910156 3.878906 15.390625 2.359375 Z M 15.390625 2.359375 "/>
<path style=" stroke:none;fill-rule:nonzero;fill:#3a3f4c;fill-opacity:1;" d="M 12.765625 8.050781 C 12.765625 8.402344 13.050781 8.6875 13.40625 8.6875 C 13.757812 8.6875 14.042969 8.402344 14.042969 8.050781 C 14.042969 5.65625 12.09375 3.707031 9.699219 3.707031 C 9.347656 3.707031 9.058594 3.992188 9.058594 4.34375 C 9.058594 4.695312 9.34375 4.984375 9.699219 4.984375 C 11.390625 4.984375 12.765625 6.359375 12.765625 8.050781 Z M 12.765625 8.050781 "/>
<path style=" stroke:none;fill-rule:nonzero;fill:#3a3f4c;fill-opacity:1;" d="M 11.355469 11.304688 C 10.382812 11.253906 9.886719 11.976562 9.648438 12.324219 C 9.449219 12.613281 9.527344 13.011719 9.816406 13.210938 C 10.105469 13.410156 10.503906 13.335938 10.703125 13.042969 C 10.984375 12.632812 11.109375 12.570312 11.285156 12.578125 C 11.835938 12.640625 14.011719 14.234375 14.226562 14.734375 C 14.28125 14.882812 14.28125 15.023438 14.222656 15.199219 C 13.992188 15.878906 13.617188 16.351562 13.128906 16.578125 C 12.667969 16.789062 12.097656 16.769531 11.488281 16.519531 C 9.210938 15.59375 7.222656 14.296875 5.574219 12.671875 C 5.574219 12.671875 5.574219 12.667969 5.574219 12.667969 C 3.949219 11.023438 2.65625 9.035156 1.730469 6.761719 C 1.480469 6.152344 1.460938 5.585938 1.675781 5.121094 C 1.898438 4.636719 2.375 4.257812 3.050781 4.027344 C 3.226562 3.96875 3.371094 3.96875 3.515625 4.023438 C 4.015625 4.242188 5.609375 6.414062 5.671875 6.960938 C 5.683594 7.140625 5.617188 7.265625 5.207031 7.546875 C 4.914062 7.746094 4.839844 8.144531 5.039062 8.433594 C 5.238281 8.726562 5.636719 8.800781 5.925781 8.601562 C 6.273438 8.363281 6.996094 7.871094 6.945312 6.894531 C 6.890625 5.875 4.910156 3.175781 3.960938 2.828125 C 3.539062 2.671875 3.097656 2.667969 2.644531 2.820312 C 1.625 3.164062 0.886719 3.777344 0.515625 4.589844 C 0.152344 5.382812 0.164062 6.296875 0.546875 7.242188 C 1.539062 9.675781 2.925781 11.804688 4.671875 13.574219 C 4.675781 13.578125 4.679688 13.582031 4.683594 13.585938 C 6.449219 15.328125 8.578125 16.710938 11.007812 17.703125 C 11.496094 17.902344 11.972656 18 12.433594 18 C 12.863281 18 13.277344 17.914062 13.660156 17.738281 C 14.476562 17.363281 15.085938 16.625 15.429688 15.605469 C 15.582031 15.152344 15.582031 14.710938 15.425781 14.292969 C 15.074219 13.34375 12.375 11.359375 11.355469 11.304688 Z M 11.355469 11.304688 "/>
</g>
</svg>
